<?xml version="1.0" encoding="UTF-8" standalone="no"?>
<svg width="15px" height="15px" viewBox="0 0 15 15" version="1.1" xmlns="http://www.w3.org/2000/svg" xmlns:xlink="http://www.w3.org/1999/xlink">
    <!-- Generator: sketchtool 39.1 (31720) - http://www.bohemiancoding.com/sketch -->
    <title>D83E282D-77ED-4258-8350-C3FE98CDE475</title>
    <desc>Created with sketchtool.</desc>
    <defs></defs>
    <g id="Page-1" stroke="none" stroke-width="1" fill="none" fill-rule="evenodd" opacity="0.6">
        <g id="2.向上拖拽删除工作区" transform="translate(-516.000000, -119.000000)" fill="#FFFFFF">
            <g id="导航区" transform="translate(454.000000, -52.000000)">
                <path d="M71.4860491,171.002 C71.4743387,171.001592 71.4626177,171.001592 71.4509073,171.002 L67.4857184,171.002 C67.4686607,171.001133 67.4515697,171.001133 67.434512,171.002 C67.166138,171.02639 66.9649628,171.257449 66.9787163,171.525501 C66.9924698,171.793554 67.2162461,172.002984 67.4857184,172 L71.4509073,172 C71.6306874,172.006938 71.8004652,171.917587 71.896008,171.765752 C71.9915507,171.613917 71.9982674,171.422785 71.9136169,171.264668 C71.8289664,171.106552 71.6658762,171.005598 71.4860491,171 L71.4860491,171.002 Z M62.4771222,173.002 C62.2977539,173.011094 62.136884,173.114809 62.0551174,173.274072 C61.9733508,173.433335 61.9831114,173.623948 62.080722,173.774099 C62.1783327,173.924251 62.3489621,174.011128 62.5283287,174.002 L76.4908299,174.002 C76.6718769,174.004549 76.8402771,173.90981 76.9315473,173.754062 C77.0228176,173.598314 77.0228176,173.405686 76.9315473,173.249938 C76.8402771,173.09419 76.6718769,172.999451 76.4908299,173.002 L62.5283287,173.002 C62.5112709,173.001133 62.4941799,173.001133 62.4771222,173.002 L62.4771222,173.002 Z M64.4459612,175.002 C64.3128151,175.004066 64.1859467,175.058727 64.0932669,175.153959 C64.0005872,175.249191 63.9496885,175.377191 63.9517684,175.5098 L63.9517684,185.502 C63.9517961,185.778131 64.1765438,186.001972 64.4537927,186.002 L74.4942792,186.002 C74.7715281,186.001972 74.9962758,185.778131 74.9963035,185.502 L74.9963035,175.5098 C74.9988632,175.329483 74.9037417,175.161761 74.7473627,175.070858 C74.5909836,174.979955 74.3975748,174.979955 74.2411957,175.070858 C74.0848167,175.161761 73.9896952,175.329483 73.9922549,175.5098 L73.9922549,185.002 L64.9558171,185.002 L64.9558171,175.5098 C64.9579396,175.374486 64.9049046,175.244093 64.8088241,175.1484 C64.7127436,175.052707 64.5818229,174.999886 64.4459612,175.002 L64.4459612,175.002 Z M67.4581071,175.9727 C67.1815991,175.977005 66.9606454,176.203193 66.9639144,176.4786 C66.9635927,176.488931 66.9635927,176.499269 66.9639144,176.5096 L66.9639144,183.5272 C66.9613547,183.707517 67.0564762,183.875239 67.2128552,183.966142 C67.3692342,184.057045 67.5626431,184.057045 67.7190221,183.966142 C67.8754012,183.875239 67.9705227,183.707517 67.967963,183.5272 L67.967963,176.5096 L67.967963,176.4786 C67.9695651,176.343613 67.9163004,176.213716 67.8202778,176.118439 C67.7242552,176.023161 67.5936333,175.970598 67.4581071,175.9727 L67.4581071,175.9727 Z M69.4662044,176.0017 C69.3330053,176.003765 69.2060906,176.058468 69.1134022,176.153765 C69.0207138,176.249062 68.9698509,176.377139 68.9720116,176.5098 L68.9720116,183.5274 C68.9694527,183.707717 69.0645744,183.875438 69.2209531,183.96634 C69.3773318,184.057242 69.5707401,184.057242 69.7271188,183.96634 C69.8834975,183.875438 69.9786192,183.707717 69.9760603,183.5274 L69.9760603,176.5098 C69.9781828,176.374486 69.9251478,176.244093 69.8290673,176.1484 C69.7329869,176.052707 69.6020661,175.999886 69.4662044,176.002 L69.4662044,176.0017 Z M71.4743017,176.0327 C71.1975953,176.037004 70.9765609,176.263498 70.9801089,176.5391 L70.9801089,183.504 C70.97755,183.684317 71.0726717,183.852038 71.2290504,183.94294 C71.3854291,184.033842 71.5788374,184.033842 71.7352161,183.94294 C71.8915948,183.852038 71.9867165,183.684317 71.9841576,183.504 L71.9841576,176.5391 C71.9857324,176.404131 71.9324556,176.274259 71.8364361,176.179004 C71.7404165,176.083748 71.6098103,176.031199 71.4743017,176.0333 L71.4743017,176.0327 Z" id="path35458"></path>
            </g>
        </g>
    </g>
</svg>